<svg width="24" height="24" viewBox="0 0 24 24" fill="none" xmlns="http://www.w3.org/2000/svg">
<g clip-path="url(#clip0_9_92)">
<path d="M15.7084 14.9691C15.0617 15.5324 14.255 16.2335 12.7879 16.2335H11.913C10.8526 16.2335 9.88832 15.8557 9.19833 15.1699C8.52432 14.5002 8.15308 13.5833 8.15308 12.588V11.4117C8.15308 10.4164 8.52432 9.49956 9.19833 8.82983C9.88832 8.14404 10.8526 7.76624 11.913 7.76624H12.7879C14.255 7.76624 15.061 8.46733 15.7084 9.03067C16.3797 9.61492 16.9598 10.1193 18.5048 10.1193C18.7405 10.1193 18.9758 10.1008 19.2085 10.064C19.2085 10.0595 19.2055 10.0554 19.2036 10.051C19.1109 9.82537 19.0023 9.60644 18.8784 9.39578L17.8453 7.63931C17.3795 6.84758 16.7096 6.19011 15.9029 5.73297C15.0962 5.27583 14.1812 5.03512 13.2497 5.03503H11.1831C10.2516 5.03512 9.33653 5.27583 8.52984 5.73297C7.72315 6.19011 7.05326 6.84758 6.58747 7.63931L5.55439 9.39578C5.08868 10.1875 4.84351 11.0857 4.84351 11.9999C4.84351 12.9141 5.08868 13.8122 5.55439 14.604L6.58747 16.3604C7.05328 17.1521 7.72318 17.8095 8.52988 18.2666C9.33657 18.7237 10.2516 18.9643 11.1831 18.9643H13.2497C14.1811 18.9643 15.0962 18.7237 15.9029 18.2666C16.7096 17.8095 17.3795 17.1521 17.8453 16.3604L18.8784 14.604C19.0023 14.3933 19.1109 14.1744 19.2036 13.9488C19.2036 13.9443 19.207 13.9402 19.2085 13.9357C18.9758 13.8989 18.7405 13.8804 18.5048 13.8805C16.9598 13.8805 16.3797 14.3848 15.7084 14.9691Z" fill="#006BFF"/>
<path d="M12.7879 8.83167H11.913C10.2995 8.83167 9.23901 9.96282 9.23901 11.4109V12.5873C9.23901 14.0354 10.2995 15.1665 11.913 15.1665H12.7879C15.1393 15.1665 14.956 12.8146 18.5048 12.8146C18.8413 12.8143 19.177 12.8445 19.5079 12.9046C19.6155 12.3062 19.6155 11.6939 19.5079 11.0955C19.1771 11.1559 18.8413 11.1861 18.5048 11.1858C14.9548 11.1854 15.1393 8.83167 12.7879 8.83167Z" fill="#006BFF"/>
<path d="M21.5476 13.7644C20.9427 13.3305 20.2453 13.0369 19.508 12.9058C19.508 12.9118 19.5061 12.9177 19.505 12.9233C19.4417 13.2703 19.3424 13.6101 19.2087 13.9373C19.8178 14.0298 20.3958 14.2632 20.8949 14.6182C20.8949 14.6234 20.8918 14.6287 20.8899 14.6343C20.6071 15.5358 20.1796 16.3873 19.6237 17.1568C19.0741 17.9191 18.4068 18.5927 17.6458 19.1533C15.8035 20.5135 13.504 21.137 11.2116 20.8978C8.9192 20.6586 6.80465 19.5746 5.29492 17.8647C3.7852 16.1548 2.99279 13.9464 3.07769 11.6853C3.16259 9.42423 4.11848 7.27901 5.75235 5.6828C6.86232 4.59422 8.24003 3.80558 9.75191 3.39335C11.2638 2.98111 12.8586 2.95926 14.3816 3.32992C15.9046 3.70057 17.3042 4.45116 18.4447 5.5089C19.5852 6.56664 20.4279 7.89566 20.8911 9.36709C20.893 9.37269 20.8945 9.37792 20.896 9.38314C20.3966 9.73821 19.8182 9.97149 19.2087 10.0637C19.3424 10.3912 19.4418 10.7312 19.5054 11.0784C19.5054 11.084 19.5054 11.0896 19.508 11.0948C20.2454 10.964 20.9428 10.6704 21.5476 10.2362C22.1292 9.81395 22.0166 9.33685 21.928 9.05462C20.6465 4.96864 16.7709 2 12.1886 2C6.56178 2 2 6.47722 2 11.9997C2 17.5223 6.56178 21.9999 12.1886 21.9999C16.7709 21.9999 20.6465 19.0312 21.9261 14.9464C22.0166 14.6641 22.1292 14.187 21.5476 13.7644Z" fill="#006BFF"/>
<path d="M19.2088 10.0638C18.9761 10.1006 18.7408 10.1191 18.5051 10.119C16.96 10.119 16.38 9.61467 15.7086 9.03043C15.062 8.46709 14.2552 7.76599 12.7881 7.76599H11.9133C10.8528 7.76599 9.88857 8.14379 9.19858 8.82958C8.52456 9.49931 8.15332 10.4162 8.15332 11.4115V12.5878C8.15332 13.5831 8.52456 14.4999 9.19858 15.1697C9.88857 15.8555 10.8528 16.2333 11.9133 16.2333H12.7881C14.2552 16.2333 15.0612 15.5322 15.7086 14.9688C16.38 14.3846 16.96 13.8802 18.5051 13.8802C18.7408 13.8802 18.9761 13.8986 19.2088 13.9355C19.3425 13.6083 19.4418 13.2685 19.5051 12.9215C19.5051 12.9159 19.5074 12.91 19.5081 12.904C19.1773 12.8439 18.8415 12.8138 18.5051 12.814C14.9551 12.814 15.1396 15.1659 12.7881 15.1659H11.9133C10.2997 15.1659 9.23928 14.0348 9.23928 12.5867V11.4118C9.23928 9.96372 10.2997 8.83257 11.9133 8.83257H12.7881C15.1396 8.83257 14.9562 11.1845 18.5051 11.1845C18.8416 11.1848 19.1773 11.1546 19.5081 11.0941C19.5081 11.0889 19.5081 11.0833 19.5055 11.0777C19.4418 10.7307 19.3424 10.391 19.2088 10.0638Z" fill="#0AE9EF"/>
<path d="M19.2088 10.0638C18.9761 10.1006 18.7408 10.1191 18.5051 10.119C16.96 10.119 16.38 9.61467 15.7086 9.03043C15.062 8.46709 14.2552 7.76599 12.7881 7.76599H11.9133C10.8528 7.76599 9.88857 8.14379 9.19858 8.82958C8.52456 9.49931 8.15332 10.4162 8.15332 11.4115V12.5878C8.15332 13.5831 8.52456 14.4999 9.19858 15.1697C9.88857 15.8555 10.8528 16.2333 11.9133 16.2333H12.7881C14.2552 16.2333 15.0612 15.5322 15.7086 14.9688C16.38 14.3846 16.96 13.8802 18.5051 13.8802C18.7408 13.8802 18.9761 13.8986 19.2088 13.9355C19.3425 13.6083 19.4418 13.2685 19.5051 12.9215C19.5051 12.9159 19.5074 12.91 19.5081 12.904C19.1773 12.8439 18.8415 12.8138 18.5051 12.814C14.9551 12.814 15.1396 15.1659 12.7881 15.1659H11.9133C10.2997 15.1659 9.23928 14.0348 9.23928 12.5867V11.4118C9.23928 9.96372 10.2997 8.83257 11.9133 8.83257H12.7881C15.1396 8.83257 14.9562 11.1845 18.5051 11.1845C18.8416 11.1848 19.1773 11.1546 19.5081 11.0941C19.5081 11.0889 19.5081 11.0833 19.5055 11.0777C19.4418 10.7307 19.3424 10.391 19.2088 10.0638Z" fill="#0AE9EF"/>
</g>
<defs>
<clipPath id="clip0_9_92">
<rect width="24" height="24" fill="white"/>
</clipPath>
</defs>
</svg>
