<svg width="24" height="24" viewBox="0 0 24 24" fill="none" xmlns="http://www.w3.org/2000/svg">
<mask id="mask0_605_267" style="mask-type:alpha" maskUnits="userSpaceOnUse" x="0" y="0" width="24" height="24">
<mask id="mask1_605_267" style="mask-type:alpha" maskUnits="userSpaceOnUse" x="0" y="0" width="24" height="24">
<g clip-path="url(#clip0_605_267)">
<path d="M16 6C16.5304 6 17.0391 5.78929 17.4142 5.41421C17.7893 5.03914 18 4.53043 18 4C18 4.53043 18.2107 5.03914 18.5858 5.41421C18.9609 5.78929 19.4696 6 20 6C19.4696 6 18.9609 6.21071 18.5858 6.58579C18.2107 6.96086 18 7.46957 18 8C18 7.46957 17.7893 6.96086 17.4142 6.58579C17.0391 6.21071 16.5304 6 16 6ZM16 18C16.5304 18 17.0391 17.7893 17.4142 17.4142C17.7893 17.0391 18 16.5304 18 16C18 16.5304 18.2107 17.0391 18.5858 17.4142C18.9609 17.7893 19.4696 18 20 18C19.4696 18 18.9609 18.2107 18.5858 18.5858C18.2107 18.9609 18 19.4696 18 20C18 19.4696 17.7893 18.9609 17.4142 18.5858C17.0391 18.2107 16.5304 18 16 18ZM9 6C9 7.5913 9.63214 9.11742 10.7574 10.2426C11.8826 11.3679 13.4087 12 15 12C13.4087 12 11.8826 12.6321 10.7574 13.7574C9.63214 14.8826 9 16.4087 9 18C9 16.4087 8.36786 14.8826 7.24264 13.7574C6.11742 12.6321 4.5913 12 3 12C4.5913 12 6.11742 11.3679 7.24264 10.2426C8.36786 9.11742 9 7.5913 9 6Z" stroke="black" stroke-linecap="round" stroke-linejoin="round"/>
<g clip-path="url(#clip1_605_267)">
<mask id="mask2_605_267" style="mask-type:luminance" maskUnits="userSpaceOnUse" x="1" y="4" width="16" height="16">
<path d="M16.9458 20H1V4.05418H16.9458V20Z" fill="white"/>
</mask>
<g mask="url(#mask2_605_267)">
<path d="M16.9458 12.0258C12.8694 11.3223 9.67768 8.128 8.97161 4.05164C8.26808 8.13065 5.07638 11.3223 1 12.0258C5.07638 12.7319 8.26809 15.9236 8.97418 20C9.67771 15.9236 12.872 12.7319 16.9484 12.0258H16.9458Z" fill="#6ECCE5"/>
</g>
</g>
<g clip-path="url(#clip2_605_267)">
<mask id="mask3_605_267" style="mask-type:luminance" maskUnits="userSpaceOnUse" x="13" y="13" width="10" height="10">
<path d="M22.9661 23H13V13.0339H22.9661V23Z" fill="white"/>
</mask>
<g mask="url(#mask3_605_267)">
<path d="M22.9661 18.0161C20.4183 17.5764 18.4236 15.58 17.9823 13.0323C17.5426 15.5817 15.5477 17.5764 13 18.0161C15.5477 18.4574 17.5426 20.4523 17.9839 23C18.4236 20.4523 20.42 18.4574 22.9677 18.0161H22.9661Z" fill="#D21D97"/>
</g>
</g>
<g clip-path="url(#clip3_605_267)">
<mask id="mask4_605_267" style="mask-type:luminance" maskUnits="userSpaceOnUse" x="13" y="1" width="10" height="10">
<path d="M22.9661 11H13V1.03386H22.9661V11Z" fill="white"/>
</mask>
<g mask="url(#mask4_605_267)">
<path d="M22.9661 6.01614C20.4183 5.57644 18.4236 3.58 17.9823 1.03227C17.5426 3.58165 15.5477 5.57644 13 6.01614C15.5477 6.45745 17.5426 8.45226 17.9839 11C18.4236 8.45226 20.42 6.45745 22.9677 6.01614H22.9661Z" fill="#4264B6"/>
</g>
</g>
</g>
</mask>
<g mask="url(#mask1_605_267)">
<rect width="24" height="24" transform="matrix(1 0 0 -1 0 24)" fill="url(#paint0_linear_605_267)"/>
</g>
</mask>
<g mask="url(#mask0_605_267)">
<rect width="22" height="22" transform="matrix(1 0 0 -1 1 23)" fill="url(#paint1_linear_605_267)"/>
</g>
<defs>
<linearGradient id="paint0_linear_605_267" x1="12" y1="0" x2="12" y2="24" gradientUnits="userSpaceOnUse">
<stop stop-color="#4264B6"/>
<stop offset="1" stop-color="#D21D97"/>
</linearGradient>
<linearGradient id="paint1_linear_605_267" x1="11" y1="0" x2="11" y2="22" gradientUnits="userSpaceOnUse">
<stop stop-color="#304FFE"/>
<stop offset="1" stop-color="#FF40AC"/>
</linearGradient>
<clipPath id="clip0_605_267">
<rect width="24" height="24" fill="white" transform="matrix(1 0 0 -1 0 24)"/>
</clipPath>
<clipPath id="clip1_605_267">
<rect width="16" height="16" fill="white" transform="matrix(1 0 0 -1 1 20)"/>
</clipPath>
<clipPath id="clip2_605_267">
<rect width="10" height="10" fill="white" transform="matrix(1 0 0 -1 13 23)"/>
</clipPath>
<clipPath id="clip3_605_267">
<rect width="10" height="10" fill="white" transform="matrix(1 0 0 -1 13 11)"/>
</clipPath>
</defs>
</svg>
